<svg width="12" height="9" viewBox="0 0 12 9" fill="none" xmlns="http://www.w3.org/2000/svg">
<path d="M8.08594 8.32617H5.9707V7.98633C6.47461 7.78711 6.5625 7.47656 6.5625 6.68555V0.996094C6.5625 0.556641 6.50977 0.498047 5.9707 0.462891V0.123047H7.67578L9.97852 5.64844C10.207 6.19922 10.3008 6.50977 10.4238 6.95508L10.5469 6.9375C10.5 6.33984 10.4766 5.85352 10.4766 5.30859V2.02148C10.4766 1.08984 10.2715 0.638672 9.48047 0.462891V0.123047H11.5547V0.462891C11.0391 0.65625 10.957 0.966797 10.957 1.75781V8.32617H9.97852L7.58789 2.60156C7.33008 1.99805 7.21289 1.6582 7.0957 1.20117L6.97266 1.21289C7.01953 1.82812 7.04297 2.36719 7.04297 2.86523V6.26367C7.04297 7.27148 7.25391 7.76367 8.08594 7.98633V8.32617Z" fill="black"/>
<path d="M2.2207 8.42578C0.767578 8.42578 0 7.23633 0 4.98047V3.41602C0 1.18359 0.902344 0 2.53125 0C3.84375 0 4.05469 0.738281 4.46484 0.123047H4.79297V2.95898H4.35352C4.08984 1.01367 3.58594 0.392578 2.60742 0.392578C1.56445 0.392578 1.07812 1.21289 1.07812 3.1582V5.0332C1.07812 7.00195 1.53516 7.98047 2.49609 7.98047C3.39258 7.98047 3.99609 7.07227 3.99609 5.35547C3.99609 4.64648 3.87305 4.58789 2.5957 4.55273V4.20703H5.37305V4.55273C4.94531 4.58203 4.89844 4.64062 4.89844 5.08594V8.32617H4.55859C4.50586 7.95117 4.38281 7.45898 4.2832 7.07812H4.16016C3.80859 7.95117 3.12891 8.42578 2.2207 8.42578Z" fill="black"/>
</svg>
